<?xml version="1.0" standalone="no"?>
<!DOCTYPE svg PUBLIC "-//W3C//DTD SVG 20010904//EN"
 "http://www.w3.org/TR/2001/REC-SVG-20010904/DTD/svg10.dtd">
<svg version="1.0" xmlns="http://www.w3.org/2000/svg"
 width="1046.000000pt" height="1180.000000pt" viewBox="0 0 1046.000000 1180.000000"
 preserveAspectRatio="xMidYMid meet">

<g transform="translate(0.000000,1180.000000) scale(0.100000,-0.100000)"
fill="#000000" stroke="none">
<path d="M3502 9490 c0 -19 2 -27 5 -17 2 9 2 25 0 35 -3 9 -5 1 -5 -18z"/>
<path d="M3493 9380 c0 -30 2 -43 4 -27 2 15 2 39 0 55 -2 15 -4 2 -4 -28z"/>
<path d="M3480 8948 c-3 -31 -1 -53 3 -49 5 5 7 30 5 57 l-3 49 -5 -57z"/>
<path d="M5270 8855 c-165 -14 -221 -28 -282 -73 -53 -37 -60 -56 -25 -66 12
-3 151 -6 308 -6 158 0 379 -5 493 -11 114 -6 219 -8 234 -4 25 6 26 8 9 19
-9 7 -17 18 -17 25 0 6 -7 11 -15 11 -8 0 -15 7 -15 16 0 8 -4 12 -10 9 -5 -3
-10 -2 -10 3 0 10 -4 12 -90 36 -156 45 -364 59 -580 41z"/>
<path d="M3472 8838 c-14 -14 -16 -54 -3 -62 5 -3 11 12 13 34 2 22 3 40 3 40
-1 0 -6 -5 -13 -12z"/>
<path d="M6980 8805 c0 -22 4 -34 10 -30 6 3 10 17 10 30 0 13 -4 27 -10 30
-6 4 -10 -8 -10 -30z"/>
<path d="M3483 8660 c0 -30 2 -43 4 -27 2 15 2 39 0 55 -2 15 -4 2 -4 -28z"/>
<path d="M4740 8680 l-65 -7 66 -1 c45 -1 71 -7 79 -17 8 -10 12 -46 10 -108
-2 -96 -2 -160 -1 -214 1 -28 5 -33 34 -37 17 -3 286 -7 595 -10 l564 -6 -6
103 c-4 56 -9 135 -11 176 -3 41 -10 78 -16 82 -20 12 -155 28 -317 39 -165
11 -825 11 -932 0z m538 -147 c17 -24 15 -40 -8 -63 -54 -54 -134 16 -83 73
21 22 70 17 91 -10z"/>
<path d="M5227 8513 c-4 -3 -7 -12 -7 -20 0 -17 26 -17 33 1 8 21 -11 35 -26
19z"/>
<path d="M3537 8440 l-39 -17 23 -22 c13 -11 26 -21 30 -21 13 0 21 -60 10
-74 -15 -18 4 -25 39 -16 24 6 25 10 22 64 -4 57 -19 100 -37 102 -6 1 -27 -6
-48 -16z"/>
<path d="M3971 8447 c-18 -18 -13 -47 9 -47 11 0 20 5 20 12 0 9 3 9 12 0 20
-20 38 -14 38 14 0 16 -5 24 -12 21 -7 -2 -23 -1 -34 4 -13 4 -26 3 -33 -4z"/>
<path d="M6373 8445 c-6 -18 23 -55 43 -55 20 0 30 50 13 61 -22 14 -49 11
-56 -6z"/>
<path d="M6490 8419 c0 -24 23 -21 28 4 2 10 -3 17 -12 17 -10 0 -16 -9 -16
-21z"/>
<path d="M6873 8348 c-30 -14 -31 -48 -1 -48 12 0 19 3 15 6 -3 3 -2 17 3 30
5 13 8 24 7 23 -1 0 -12 -5 -24 -11z"/>
<path d="M3585 8191 c-18 -5 -20 -16 -23 -126 -13 -615 -8 -4189 6 -4015 5 72
9 78 64 95 91 30 180 85 228 140 51 60 59 83 66 179 3 38 8 76 13 85 4 9 9 93
10 186 1 94 4 195 8 225 12 114 1 387 -17 421 -5 9 -7 85 -4 170 3 85 7 201 9
259 2 58 6 132 10 165 7 58 15 508 12 725 -3 253 3 469 14 475 3 3 5 16 3 30
-1 16 3 28 12 32 8 3 14 12 14 20 0 8 -4 12 -9 9 -10 -7 -2 34 10 49 4 6 10
22 13 35 3 14 7 36 10 50 3 14 12 30 20 35 8 6 16 22 19 35 6 34 7 -14 10
-785 l3 -670 55 -6 c76 -8 155 -36 214 -75 l50 -33 18 62 c50 169 53 175 163
283 119 117 191 160 329 195 81 21 112 23 315 23 199 0 235 -2 314 -22 126
-32 208 -78 318 -181 102 -96 138 -152 164 -251 25 -100 29 -103 82 -69 63 40
137 62 207 63 75 1 111 -17 149 -72 25 -35 31 -55 34 -112 4 -57 0 -77 -21
-123 -49 -108 -143 -182 -292 -233 -73 -24 -92 -27 -224 -26 l-145 1 -89 -47
c-82 -43 -237 -161 -237 -181 0 -4 9 -42 19 -83 26 -101 61 -345 61 -424 0
-90 -17 -119 -81 -138 -189 -57 -538 -30 -577 44 -23 43 2 302 48 498 11 46
20 90 20 97 0 22 -159 142 -251 190 l-86 44 -144 -2 c-157 -2 -221 12 -333 71
-28 15 -58 30 -66 33 -14 6 -16 -52 -13 -555 2 -584 7 -759 22 -799 15 -38 97
-61 191 -52 41 3 95 8 120 10 386 32 1354 29 1675 -5 161 -17 247 -21 241 -12
-3 4 4 23 14 40 19 31 22 32 92 34 130 4 183 3 204 -4 12 -3 52 -9 89 -12 43
-4 81 -14 102 -27 22 -14 33 -17 33 -8 0 7 3 9 8 5 4 -4 10 -38 13 -74 4 -37
5 856 4 1983 -1 1253 -5 2063 -11 2084 -16 57 -34 51 -34 -11 0 -33 -6 -62
-16 -77 -94 -134 -983 -221 -1954 -191 -548 16 -917 57 -1130 126 -113 36
-125 49 -125 130 0 69 -5 77 -40 65z"/>
<path d="M4932 6176 c-11 -11 -58 -45 -106 -74 -47 -29 -86 -58 -86 -63 0 -5
21 -7 48 -4 31 3 37 2 18 -3 -20 -5 -30 -14 -33 -30 -2 -19 0 -22 17 -17 36
11 42 -5 15 -41 -23 -30 -24 -34 -8 -34 19 0 43 -23 62 -57 5 -11 9 -48 8 -84
l-2 -64 40 0 c34 0 42 4 54 29 7 16 14 39 14 52 0 28 15 22 27 -12 7 -18 4
-39 -10 -77 -24 -62 -23 -57 -5 -57 23 0 18 -15 -9 -30 -33 -17 -41 -40 -15
-40 39 0 149 -144 149 -195 0 -8 7 -15 15 -15 16 0 31 -42 21 -59 -10 -16 63
-34 116 -28 76 9 84 21 61 85 -3 6 2 12 11 12 9 0 16 -4 16 -10 0 -5 5 -10 10
-10 6 0 10 11 10 25 0 18 14 35 53 65 30 22 58 40 64 40 16 0 122 50 128 60 3
5 -29 26 -72 47 -42 21 -79 44 -81 51 -3 10 5 9 34 -3 40 -17 59 -14 25 5 -12
6 -35 29 -51 52 -33 45 -39 97 -18 143 22 50 63 18 59 -47 -3 -56 6 -75 41
-87 48 -17 77 -13 103 14 35 34 34 96 -1 142 -21 28 -23 34 -10 39 31 12 85
-6 111 -38 24 -28 27 -39 23 -88 -3 -39 -12 -67 -28 -91 l-25 -34 31 25 c66
53 93 135 64 191 -13 24 -3 24 37 -1 19 -11 35 -15 38 -10 9 15 -3 28 -55 63
-128 86 -149 102 -139 108 6 3 40 -4 77 -17 116 -40 126 -30 26 29 -49 29
-118 74 -154 100 -117 85 -168 84 -225 -5 -16 -26 -48 -75 -69 -109 -37 -59
-78 -89 -121 -89 -23 0 -103 78 -133 129 -44 79 -79 117 -116 128 -30 9 -37 8
-54 -11z m-15 -92 c-3 -3 -12 -4 -19 -1 -8 3 -5 6 6 6 11 1 17 -2 13 -5z m153
-59 c20 -40 28 -72 10 -45 -8 12 -10 10 -10 -8 0 -13 4 -20 10 -17 6 3 10 2
10 -4 0 -22 -17 -17 -53 16 -30 26 -36 37 -27 48 6 7 8 25 4 39 -6 23 -4 25
15 18 11 -4 30 -25 41 -47z m698 -120 c16 -14 32 -34 35 -46 5 -19 3 -19 -26
6 -18 14 -42 31 -54 37 -13 6 -23 15 -23 20 0 17 39 7 68 -17z m-734 -33 c19
-37 30 -106 17 -97 -6 3 -11 16 -11 28 0 12 -9 41 -20 65 -21 46 -9 49 14 4z
m13 -149 c-3 -10 -5 -4 -5 12 0 17 2 24 5 18 2 -7 2 -21 0 -30z"/>
<path d="M5042 6010 c14 -22 24 -19 15 5 -4 8 -11 15 -17 15 -6 0 -6 -7 2 -20z"/>
<path d="M4677 5858 c-31 -17 -37 -25 -33 -42 3 -12 6 -31 6 -42 0 -12 8 -32
19 -45 l18 -23 -4 49 c-3 37 1 60 15 88 11 20 19 37 18 36 0 0 -18 -10 -39
-21z"/>
<path d="M5055 5371 c-6 -11 9 -23 19 -14 9 9 7 23 -3 23 -6 0 -12 -4 -16 -9z"/>
<path d="M5320 5210 c-35 -27 -82 -33 -130 -16 -40 14 -42 13 -50 -8 -25 -66
-36 -383 -14 -405 2 -3 57 -8 121 -12 97 -5 122 -3 146 10 l29 16 -6 115 c-3
63 -10 142 -16 175 -12 67 -38 145 -48 145 -4 0 -18 -9 -32 -20z"/>
<path d="M5150 4690 c0 -4 8 -18 19 -31 18 -22 21 -22 60 -9 64 21 55 31 -41
44 -21 2 -38 1 -38 -4z"/>
<path d="M4143 4123 c9 -2 25 -2 35 0 9 3 1 5 -18 5 -19 0 -27 -2 -17 -5z"/>
<path d="M4555 4114 c-121 -7 -260 -17 -310 -23 -49 -6 -97 -11 -105 -11 -14
0 -40 -50 -40 -75 0 -4 24 -5 54 -1 90 10 404 36 526 42 181 10 1028 5 1205
-7 88 -6 243 -19 345 -28 148 -15 189 -16 203 -6 20 14 15 20 -51 53 -48 25
-129 34 -492 57 -280 18 -1027 18 -1335 -1z"/>
<path d="M3751 3998 l-44 -20 24 -19 c26 -21 49 -21 139 4 53 15 53 15 15 14
-33 -2 -42 2 -50 21 -12 27 -26 27 -84 0z"/>
<path d="M3960 3990 l-35 -7 32 -2 c17 0 35 4 38 9 3 6 5 9 3 9 -2 -1 -19 -5
-38 -9z"/>
<path d="M6448 3993 c7 -3 16 -2 19 1 4 3 -2 6 -13 5 -11 0 -14 -3 -6 -6z"/>
<path d="M6648 3988 c-5 -12 1 -17 25 -22 17 -3 35 -2 41 4 7 7 0 10 -21 10
-17 0 -33 5 -35 12 -3 8 -6 6 -10 -4z"/>
<path d="M3563 3879 c0 -64 -3 -121 -7 -127 -5 -8 4 -12 28 -12 l36 0 0 58 c0
36 6 66 16 80 14 20 14 22 -3 22 -28 1 -61 34 -66 66 -3 16 -4 -23 -4 -87z"/>
<path d="M6628 3953 c7 -3 16 -2 19 1 4 3 -2 6 -13 5 -11 0 -14 -3 -6 -6z"/>
<path d="M6890 3940 c0 -13 -12 -28 -30 -38 -21 -12 -28 -22 -23 -32 4 -8 9
-41 11 -72 3 -54 5 -57 28 -56 24 2 24 3 24 110 0 59 -2 108 -5 108 -3 0 -5
-9 -5 -20z"/>
<path d="M3570 3602 c0 -47 6 -55 31 -39 12 8 19 23 19 44 0 29 -3 33 -25 33
-22 0 -25 -4 -25 -38z"/>
<path d="M5225 3630 c-187 -3 -341 -7 -341 -8 -7 -13 12 -175 24 -202 22 -50
42 -66 138 -115 107 -55 159 -62 285 -40 53 9 109 14 125 12 16 -2 36 0 44 4
16 8 104 34 155 45 17 4 42 15 57 25 14 11 31 19 38 19 13 0 105 77 105 88 1
4 10 26 22 50 12 23 16 39 10 35 -7 -4 -6 1 2 11 8 9 16 33 18 52 l4 34 -173
-2 c-95 -1 -326 -5 -513 -8z m49 -145 c20 -31 20 -54 0 -83 -31 -45 -104 -17
-104 41 0 63 71 92 104 42z"/>
<path d="M5219 3424 c-11 -14 -10 -16 9 -12 13 1 23 7 23 13 1 17 -17 16 -32
-1z"/>
<path d="M6878 3633 c-22 -3 -28 -10 -28 -29 0 -14 7 -27 18 -31 9 -4 20 -11
24 -17 5 -6 5 4 2 21 -4 20 -2 39 6 48 7 8 11 14 9 14 -2 -1 -16 -4 -31 -6z"/>
<path d="M3950 3503 c-13 -15 -12 -16 4 -10 10 4 20 7 22 7 2 0 4 5 4 10 0 15
-13 12 -30 -7z"/>
<path d="M6400 3510 c0 -5 5 -10 10 -10 6 0 10 5 10 10 0 6 -4 10 -10 10 -5 0
-10 -4 -10 -10z"/>
<path d="M6494 3509 c-7 -12 15 -31 28 -23 9 6 -1 34 -12 34 -5 0 -12 -5 -16
-11z"/>
<path d="M3486 3405 c4 -8 8 -15 10 -15 2 0 4 7 4 15 0 8 -4 15 -10 15 -5 0
-7 -7 -4 -15z"/>
<path d="M6972 3350 c0 -14 2 -19 5 -12 2 6 2 18 0 25 -3 6 -5 1 -5 -13z"/>
<path d="M3493 2920 c-2 -321 1 -438 12 -515 109 -750 682 -1356 1404 -1485
210 -37 551 -24 763 31 207 52 431 163 608 299 67 52 204 184 206 198 0 4 4
24 8 44 5 20 4 43 0 50 -5 7 -9 27 -10 43 -5 82 -14 133 -28 160 -9 17 -16 37
-16 45 0 9 -4 20 -9 25 -5 6 -11 19 -13 30 -1 10 -13 37 -26 60 -12 22 -29 54
-37 70 -9 17 -23 42 -33 56 -37 57 -108 186 -121 219 -8 19 -20 40 -28 47 -8
6 -14 14 -14 17 0 6 -4 22 -19 66 -5 14 -12 48 -15 75 -8 60 -9 65 -35 180
-11 50 -21 97 -21 105 0 8 -3 22 -6 30 -7 18 -10 34 -14 78 -2 17 -6 32 -10
32 -3 0 -9 28 -12 63 -7 71 -15 99 -28 91 -5 -3 -10 5 -10 18 -1 13 -3 32 -4
43 -2 11 -5 32 -6 48 -2 15 -6 27 -10 27 -3 0 -6 7 -7 15 -1 8 -3 22 -4 31 -1
15 -12 16 -82 10 -45 -3 -243 -8 -441 -12 -198 -3 -370 -7 -381 -10 -15 -3
-21 -11 -21 -30 0 -14 -5 -29 -10 -33 -5 -3 -16 -35 -23 -71 -7 -36 -18 -74
-23 -85 -6 -11 -12 -36 -14 -55 -2 -19 -8 -48 -13 -65 -5 -16 -12 -44 -15 -62
-3 -18 -10 -45 -17 -60 -6 -15 -12 -40 -14 -54 -1 -14 -9 -46 -17 -70 -8 -24
-17 -64 -20 -89 -3 -25 -13 -64 -21 -88 -8 -23 -15 -45 -15 -47 2 -25 -19 -75
-46 -111 -18 -23 -35 -47 -36 -52 -6 -12 -109 -92 -120 -92 -5 0 -27 -11 -49
-25 -22 -14 -64 -32 -94 -39 -61 -16 -203 -14 -235 4 -12 6 -21 8 -21 4 0 -3
-7 -1 -15 6 -8 6 -19 9 -25 5 -5 -3 -10 -2 -10 3 0 11 -50 37 -79 41 -5 0 -16
7 -23 14 -7 7 -30 23 -50 36 -21 12 -38 26 -38 31 0 5 -13 11 -30 15 -16 4
-30 11 -30 16 0 6 -5 7 -12 3 -7 -4 -8 -3 -4 5 4 6 0 14 -11 18 -10 3 -33 22
-51 42 -61 67 -65 71 -70 66 -3 -2 6 -14 19 -25 24 -21 24 -21 1 -10 -13 6
-27 22 -32 36 -5 13 -12 24 -15 24 -4 0 -3 -4 0 -10 3 -5 2 -10 -3 -10 -5 0
-12 9 -15 21 -3 12 -10 18 -16 15 -6 -4 -21 4 -33 16 -13 13 -26 22 -29 21 -4
-1 -6 8 -5 20 1 17 -5 23 -26 25 -19 2 -29 11 -37 33 -5 16 -17 29 -25 29 -20
0 -29 17 -15 26 8 5 9 3 4 -7 -5 -8 -4 -10 0 -6 14 12 15 37 2 34 -7 -1 -13
13 -15 31 -2 17 -7 32 -13 32 -5 0 -9 5 -9 11 0 5 5 7 10 4 6 -3 10 0 10 9 0
25 -12 46 -26 46 -16 0 -19 16 -5 24 5 3 9 21 8 40 0 19 -4 33 -9 30 -4 -3 -9
107 -11 243 -1 165 -3 109 -4 -167z"/>
<path d="M6530 1490 c-8 -5 -12 -12 -9 -15 4 -3 12 1 19 10 14 17 11 19 -10 5z"/>
</g>
</svg>
